<svg xmlns="http://www.w3.org/2000/svg" xmlns:xlink="http://www.w3.org/1999/xlink" width="500" zoomAndPan="magnify" viewBox="0 0 375 374.999991" height="500" preserveAspectRatio="xMidYMid meet" version="1.0"><defs><g/><clipPath id="04d70e94ca"><path d="M 40 156 L 85.5 156 L 85.5 227.488281 L 40 227.488281 Z M 40 156 " clip-rule="nonzero"/></clipPath><clipPath id="a477fbd695"><path d="M 18.75 147.238281 L 64 147.238281 L 64 219 L 18.75 219 Z M 18.75 147.238281 " clip-rule="nonzero"/></clipPath></defs><g clip-path="url(#04d70e94ca)"><path fill="#e87a00" d="M 73.558594 205.550781 L 40.925781 186.710938 L 40.925781 202.140625 L 85.273438 227.746094 L 85.273438 156.445312 L 73.558594 156.445312 L 73.558594 205.550781 " fill-opacity="1" fill-rule="nonzero"/></g><g clip-path="url(#a477fbd695)"><path fill="#000000" d="M 18.753906 147.234375 L 18.753906 218.535156 L 30.46875 218.535156 L 30.46875 169.429688 L 63.101562 188.269531 L 63.101562 172.835938 L 18.753906 147.234375 " fill-opacity="1" fill-rule="nonzero"/></g><g fill="#000000" fill-opacity="1"><g transform="translate(91.514823, 215.758687)"><g><path d="M 5 0.125 C 4.15625 0.125 3.410156 -0.046875 2.765625 -0.390625 C 2.128906 -0.742188 1.628906 -1.269531 1.265625 -1.96875 C 0.898438 -2.675781 0.71875 -3.539062 0.71875 -4.5625 C 0.71875 -5.59375 0.898438 -6.457031 1.265625 -7.15625 C 1.628906 -7.863281 2.128906 -8.390625 2.765625 -8.734375 C 3.410156 -9.085938 4.15625 -9.265625 5 -9.265625 C 5.875 -9.265625 6.617188 -9.09375 7.234375 -8.75 C 7.847656 -8.40625 8.285156 -7.878906 8.546875 -7.171875 L 7.234375 -6.375 L 7.078125 -6.375 C 6.878906 -6.851562 6.613281 -7.191406 6.28125 -7.390625 C 5.945312 -7.597656 5.519531 -7.703125 5 -7.703125 C 4.238281 -7.703125 3.644531 -7.453125 3.21875 -6.953125 C 2.789062 -6.453125 2.578125 -5.65625 2.578125 -4.5625 C 2.578125 -3.476562 2.789062 -2.6875 3.21875 -2.1875 C 3.644531 -1.6875 4.238281 -1.4375 5 -1.4375 C 6.175781 -1.4375 6.898438 -2.007812 7.171875 -3.15625 L 7.328125 -3.15625 L 8.65625 -2.46875 C 8.40625 -1.601562 7.976562 -0.953125 7.375 -0.515625 C 6.769531 -0.0859375 5.976562 0.125 5 0.125 Z M 5 0.125 "/></g></g></g><g fill="#000000" fill-opacity="1"><g transform="translate(100.47002, 215.758687)"><g><path d="M 4.984375 0.125 C 4.140625 0.125 3.398438 -0.0390625 2.765625 -0.375 C 2.128906 -0.71875 1.628906 -1.238281 1.265625 -1.9375 C 0.898438 -2.644531 0.71875 -3.519531 0.71875 -4.5625 C 0.71875 -5.613281 0.898438 -6.488281 1.265625 -7.1875 C 1.628906 -7.882812 2.128906 -8.40625 2.765625 -8.75 C 3.398438 -9.09375 4.140625 -9.265625 4.984375 -9.265625 C 5.816406 -9.265625 6.550781 -9.09375 7.1875 -8.75 C 7.820312 -8.414062 8.320312 -7.894531 8.6875 -7.1875 C 9.050781 -6.488281 9.234375 -5.613281 9.234375 -4.5625 C 9.234375 -3.519531 9.050781 -2.644531 8.6875 -1.9375 C 8.320312 -1.238281 7.820312 -0.71875 7.1875 -0.375 C 6.550781 -0.0390625 5.816406 0.125 4.984375 0.125 Z M 4.984375 -1.4375 C 5.753906 -1.4375 6.34375 -1.6875 6.75 -2.1875 C 7.15625 -2.6875 7.359375 -3.476562 7.359375 -4.5625 C 7.359375 -5.65625 7.15625 -6.453125 6.75 -6.953125 C 6.34375 -7.453125 5.753906 -7.703125 4.984375 -7.703125 C 4.203125 -7.703125 3.601562 -7.453125 3.1875 -6.953125 C 2.78125 -6.453125 2.578125 -5.65625 2.578125 -4.5625 C 2.578125 -3.476562 2.78125 -2.6875 3.1875 -2.1875 C 3.601562 -1.6875 4.203125 -1.4375 4.984375 -1.4375 Z M 4.984375 -1.4375 "/></g></g></g><g fill="#000000" fill-opacity="1"><g transform="translate(110.418157, 215.758687)"><g><path d="M 2.9375 0 L 1.1875 0 L 1.1875 -9.140625 L 3.25 -9.140625 L 6.921875 -3.25 L 7.078125 -3.28125 L 7.078125 -9.140625 L 8.828125 -9.140625 L 8.828125 0 L 6.96875 0 L 3.09375 -6.28125 L 2.9375 -6.265625 Z M 2.9375 0 "/></g></g></g><g fill="#000000" fill-opacity="1"><g transform="translate(120.428743, 215.758687)"><g><path d="M 2.9375 0 L 1.1875 0 L 1.1875 -9.140625 L 3.25 -9.140625 L 6.921875 -3.25 L 7.078125 -3.28125 L 7.078125 -9.140625 L 8.828125 -9.140625 L 8.828125 0 L 6.96875 0 L 3.09375 -6.28125 L 2.9375 -6.265625 Z M 2.9375 0 "/></g></g></g><g fill="#000000" fill-opacity="1"><g transform="translate(130.439329, 215.758687)"><g><path d="M 3 -4.015625 L 3 -1.515625 L 7.359375 -1.515625 L 7.359375 0 L 1.1875 0 L 1.1875 -9.140625 L 7.25 -9.140625 L 7.25 -7.625 L 3 -7.625 L 3 -5.484375 L 6.71875 -5.484375 L 6.71875 -4.015625 Z M 3 -4.015625 "/></g></g></g><g fill="#000000" fill-opacity="1"><g transform="translate(138.289177, 215.758687)"><g><path d="M 5 0.125 C 4.15625 0.125 3.410156 -0.046875 2.765625 -0.390625 C 2.128906 -0.742188 1.628906 -1.269531 1.265625 -1.96875 C 0.898438 -2.675781 0.71875 -3.539062 0.71875 -4.5625 C 0.71875 -5.59375 0.898438 -6.457031 1.265625 -7.15625 C 1.628906 -7.863281 2.128906 -8.390625 2.765625 -8.734375 C 3.410156 -9.085938 4.15625 -9.265625 5 -9.265625 C 5.875 -9.265625 6.617188 -9.09375 7.234375 -8.75 C 7.847656 -8.40625 8.285156 -7.878906 8.546875 -7.171875 L 7.234375 -6.375 L 7.078125 -6.375 C 6.878906 -6.851562 6.613281 -7.191406 6.28125 -7.390625 C 5.945312 -7.597656 5.519531 -7.703125 5 -7.703125 C 4.238281 -7.703125 3.644531 -7.453125 3.21875 -6.953125 C 2.789062 -6.453125 2.578125 -5.65625 2.578125 -4.5625 C 2.578125 -3.476562 2.789062 -2.6875 3.21875 -2.1875 C 3.644531 -1.6875 4.238281 -1.4375 5 -1.4375 C 6.175781 -1.4375 6.898438 -2.007812 7.171875 -3.15625 L 7.328125 -3.15625 L 8.65625 -2.46875 C 8.40625 -1.601562 7.976562 -0.953125 7.375 -0.515625 C 6.769531 -0.0859375 5.976562 0.125 5 0.125 Z M 5 0.125 "/></g></g></g><g fill="#000000" fill-opacity="1"><g transform="translate(147.244374, 215.758687)"><g><path d="M 7.328125 -9.140625 L 7.328125 -7.609375 L 4.6875 -7.609375 L 4.6875 0 L 2.890625 0 L 2.890625 -7.609375 L 0.25 -7.609375 L 0.25 -9.140625 Z M 7.328125 -9.140625 "/></g></g></g><g fill="#000000" fill-opacity="1"><g transform="translate(154.813201, 215.758687)"><g><path d="M 3 0 L 1.1875 0 L 1.1875 -9.140625 L 3 -9.140625 Z M 3 0 "/></g></g></g><g fill="#000000" fill-opacity="1"><g transform="translate(158.997289, 215.758687)"><g><path d="M 2.9375 0 L 1.1875 0 L 1.1875 -9.140625 L 3.25 -9.140625 L 6.921875 -3.25 L 7.078125 -3.28125 L 7.078125 -9.140625 L 8.828125 -9.140625 L 8.828125 0 L 6.96875 0 L 3.09375 -6.28125 L 2.9375 -6.265625 Z M 2.9375 0 "/></g></g></g><g fill="#000000" fill-opacity="1"><g transform="translate(169.007875, 215.758687)"><g><path d="M 4.4375 0.125 C 3.675781 0.125 3.015625 -0.046875 2.453125 -0.390625 C 1.898438 -0.734375 1.472656 -1.253906 1.171875 -1.953125 C 0.867188 -2.660156 0.71875 -3.53125 0.71875 -4.5625 C 0.71875 -5.601562 0.898438 -6.472656 1.265625 -7.171875 C 1.628906 -7.878906 2.128906 -8.40625 2.765625 -8.75 C 3.410156 -9.09375 4.160156 -9.265625 5.015625 -9.265625 C 5.890625 -9.265625 6.632812 -9.101562 7.25 -8.78125 C 7.863281 -8.457031 8.296875 -7.972656 8.546875 -7.328125 L 7.234375 -6.53125 L 7.078125 -6.53125 C 6.890625 -6.9375 6.625 -7.234375 6.28125 -7.421875 C 5.945312 -7.609375 5.523438 -7.703125 5.015625 -7.703125 C 4.222656 -7.703125 3.617188 -7.453125 3.203125 -6.953125 C 2.785156 -6.460938 2.578125 -5.664062 2.578125 -4.5625 C 2.578125 -3.457031 2.769531 -2.65625 3.15625 -2.15625 C 3.550781 -1.65625 4.128906 -1.40625 4.890625 -1.40625 C 5.546875 -1.40625 6.03125 -1.550781 6.34375 -1.84375 C 6.65625 -2.144531 6.8125 -2.59375 6.8125 -3.1875 L 6.8125 -3.578125 L 4.65625 -3.578125 L 4.65625 -5.046875 L 8.609375 -5.046875 L 8.609375 0 L 6.890625 0 L 6.890625 -1.21875 L 6.75 -1.25 C 6.5625 -0.8125 6.273438 -0.472656 5.890625 -0.234375 C 5.515625 0.00390625 5.03125 0.125 4.4375 0.125 Z M 4.4375 0.125 "/></g></g></g><g fill="#000000" fill-opacity="1"><g transform="translate(178.531358, 215.758687)"><g/></g></g><g fill="#000000" fill-opacity="1"><g transform="translate(181.547648, 215.758687)"><g><path d="M 4.71875 -9.140625 C 5.375 -9.140625 5.929688 -9.019531 6.390625 -8.78125 C 6.859375 -8.539062 7.207031 -8.203125 7.4375 -7.765625 C 7.675781 -7.335938 7.796875 -6.835938 7.796875 -6.265625 C 7.796875 -5.691406 7.675781 -5.191406 7.4375 -4.765625 C 7.207031 -4.335938 6.859375 -4.003906 6.390625 -3.765625 C 5.929688 -3.523438 5.375 -3.40625 4.71875 -3.40625 L 3 -3.40625 L 3 0 L 1.1875 0 L 1.1875 -9.140625 Z M 4.484375 -4.84375 C 5.484375 -4.84375 5.984375 -5.316406 5.984375 -6.265625 C 5.984375 -7.222656 5.484375 -7.703125 4.484375 -7.703125 L 3 -7.703125 L 3 -4.84375 Z M 4.484375 -4.84375 "/></g></g></g><g fill="#000000" fill-opacity="1"><g transform="translate(189.890844, 215.758687)"><g><path d="M 3 -4.015625 L 3 -1.515625 L 7.359375 -1.515625 L 7.359375 0 L 1.1875 0 L 1.1875 -9.140625 L 7.25 -9.140625 L 7.25 -7.625 L 3 -7.625 L 3 -5.484375 L 6.71875 -5.484375 L 6.71875 -4.015625 Z M 3 -4.015625 "/></g></g></g><g fill="#000000" fill-opacity="1"><g transform="translate(197.740693, 215.758687)"><g><path d="M 4.984375 0.125 C 4.140625 0.125 3.398438 -0.0390625 2.765625 -0.375 C 2.128906 -0.71875 1.628906 -1.238281 1.265625 -1.9375 C 0.898438 -2.644531 0.71875 -3.519531 0.71875 -4.5625 C 0.71875 -5.613281 0.898438 -6.488281 1.265625 -7.1875 C 1.628906 -7.882812 2.128906 -8.40625 2.765625 -8.75 C 3.398438 -9.09375 4.140625 -9.265625 4.984375 -9.265625 C 5.816406 -9.265625 6.550781 -9.09375 7.1875 -8.75 C 7.820312 -8.414062 8.320312 -7.894531 8.6875 -7.1875 C 9.050781 -6.488281 9.234375 -5.613281 9.234375 -4.5625 C 9.234375 -3.519531 9.050781 -2.644531 8.6875 -1.9375 C 8.320312 -1.238281 7.820312 -0.71875 7.1875 -0.375 C 6.550781 -0.0390625 5.816406 0.125 4.984375 0.125 Z M 4.984375 -1.4375 C 5.753906 -1.4375 6.34375 -1.6875 6.75 -2.1875 C 7.15625 -2.6875 7.359375 -3.476562 7.359375 -4.5625 C 7.359375 -5.65625 7.15625 -6.453125 6.75 -6.953125 C 6.34375 -7.453125 5.753906 -7.703125 4.984375 -7.703125 C 4.203125 -7.703125 3.601562 -7.453125 3.1875 -6.953125 C 2.78125 -6.453125 2.578125 -5.65625 2.578125 -4.5625 C 2.578125 -3.476562 2.78125 -2.6875 3.1875 -2.1875 C 3.601562 -1.6875 4.203125 -1.4375 4.984375 -1.4375 Z M 4.984375 -1.4375 "/></g></g></g><g fill="#000000" fill-opacity="1"><g transform="translate(207.688829, 215.758687)"><g><path d="M 4.71875 -9.140625 C 5.375 -9.140625 5.929688 -9.019531 6.390625 -8.78125 C 6.859375 -8.539062 7.207031 -8.203125 7.4375 -7.765625 C 7.675781 -7.335938 7.796875 -6.835938 7.796875 -6.265625 C 7.796875 -5.691406 7.675781 -5.191406 7.4375 -4.765625 C 7.207031 -4.335938 6.859375 -4.003906 6.390625 -3.765625 C 5.929688 -3.523438 5.375 -3.40625 4.71875 -3.40625 L 3 -3.40625 L 3 0 L 1.1875 0 L 1.1875 -9.140625 Z M 4.484375 -4.84375 C 5.484375 -4.84375 5.984375 -5.316406 5.984375 -6.265625 C 5.984375 -7.222656 5.484375 -7.703125 4.484375 -7.703125 L 3 -7.703125 L 3 -4.84375 Z M 4.484375 -4.84375 "/></g></g></g><g fill="#000000" fill-opacity="1"><g transform="translate(216.032025, 215.758687)"><g><path d="M 3 -9.140625 L 3 -1.515625 L 7.09375 -1.515625 L 7.09375 0 L 1.1875 0 L 1.1875 -9.140625 Z M 3 -9.140625 "/></g></g></g><g fill="#000000" fill-opacity="1"><g transform="translate(223.425995, 215.758687)"><g><path d="M 3 -4.015625 L 3 -1.515625 L 7.359375 -1.515625 L 7.359375 0 L 1.1875 0 L 1.1875 -9.140625 L 7.25 -9.140625 L 7.25 -7.625 L 3 -7.625 L 3 -5.484375 L 6.71875 -5.484375 L 6.71875 -4.015625 Z M 3 -4.015625 "/></g></g></g><g fill="#e87a00" fill-opacity="1"><g transform="translate(254.571931, 191.984396)"><g><path d="M 24.65625 0 L 12.0625 -14.546875 L 12.0625 0 L 3.21875 0 L 3.21875 -29.96875 L 11.625 -29.96875 L 24.21875 -15.203125 L 24.21875 -29.96875 L 33.0625 -29.96875 L 33.0625 0 Z M 24.65625 0 "/></g></g></g><g fill="#e87a00" fill-opacity="1"><g transform="translate(290.862874, 191.984396)"><g><path d="M 3.21875 -29.96875 L 29.140625 -29.96875 L 29.140625 -22.78125 L 12.84375 -22.78125 L 12.84375 -18.640625 L 26.796875 -18.640625 L 26.796875 -11.765625 L 12.84375 -11.765625 L 12.84375 -7.1875 L 29.453125 -7.1875 L 29.453125 0 L 3.21875 0 Z M 3.21875 -29.96875 "/></g></g></g><g fill="#e87a00" fill-opacity="1"><g transform="translate(322.317924, 191.984396)"><g><path d="M 20.46875 -22.296875 L 20.46875 0 L 10.84375 0 L 10.84375 -22.296875 L 1 -22.296875 L 1 -29.96875 L 30.28125 -29.96875 L 30.28125 -22.296875 Z M 20.46875 -22.296875 "/></g></g></g><g fill="#000000" fill-opacity="1"><g transform="translate(91.514823, 191.984396)"><g><path d="M 15.8125 -30.5 C 19.644531 -30.5 22.796875 -29.71875 25.265625 -28.15625 C 27.734375 -26.601562 29 -24.304688 29.0625 -21.265625 L 29.0625 -20.734375 L 20.03125 -20.734375 L 20.03125 -20.90625 C 20.03125 -21.78125 19.710938 -22.503906 19.078125 -23.078125 C 18.441406 -23.660156 17.46875 -23.953125 16.15625 -23.953125 C 14.882812 -23.953125 13.90625 -23.765625 13.21875 -23.390625 C 12.539062 -23.015625 12.203125 -22.550781 12.203125 -22 C 12.203125 -21.21875 12.664062 -20.632812 13.59375 -20.25 C 14.519531 -19.875 16.015625 -19.484375 18.078125 -19.078125 C 20.484375 -18.585938 22.460938 -18.070312 24.015625 -17.53125 C 25.578125 -17 26.9375 -16.117188 28.09375 -14.890625 C 29.257812 -13.671875 29.859375 -12.019531 29.890625 -9.9375 C 29.890625 -6.394531 28.691406 -3.765625 26.296875 -2.046875 C 23.898438 -0.335938 20.695312 0.515625 16.6875 0.515625 C 12.007812 0.515625 8.367188 -0.265625 5.765625 -1.828125 C 3.171875 -3.398438 1.875 -6.175781 1.875 -10.15625 L 10.984375 -10.15625 C 10.984375 -8.644531 11.375 -7.632812 12.15625 -7.125 C 12.9375 -6.613281 14.15625 -6.359375 15.8125 -6.359375 C 17.03125 -6.359375 18.035156 -6.488281 18.828125 -6.75 C 19.628906 -7.007812 20.03125 -7.546875 20.03125 -8.359375 C 20.03125 -9.085938 19.585938 -9.632812 18.703125 -10 C 17.816406 -10.363281 16.375 -10.75 14.375 -11.15625 C 11.9375 -11.675781 9.914062 -12.21875 8.3125 -12.78125 C 6.71875 -13.351562 5.328125 -14.289062 4.140625 -15.59375 C 2.953125 -16.90625 2.359375 -18.675781 2.359375 -20.90625 C 2.359375 -24.1875 3.625 -26.601562 6.15625 -28.15625 C 8.695312 -29.71875 11.914062 -30.5 15.8125 -30.5 Z M 15.8125 -30.5 "/></g></g></g><g fill="#000000" fill-opacity="1"><g transform="translate(122.969873, 191.984396)"><g><path d="M 23.4375 0 L 23.4375 -11.375 L 12.84375 -11.375 L 12.84375 0 L 3.21875 0 L 3.21875 -29.96875 L 12.84375 -29.96875 L 12.84375 -19.03125 L 23.4375 -19.03125 L 23.4375 -29.96875 L 33.0625 -29.96875 L 33.0625 0 Z M 23.4375 0 "/></g></g></g><g fill="#000000" fill-opacity="1"><g transform="translate(159.260816, 191.984396)"><g><path d="M 23.3125 0 L 22.046875 -4.21875 L 11.546875 -4.21875 L 10.28125 0 L 0.4375 0 L 11.375 -29.96875 L 22.5625 -29.96875 L 33.5 0 Z M 13.546875 -10.9375 L 20.03125 -10.9375 L 16.90625 -21.609375 L 16.734375 -21.609375 Z M 13.546875 -10.9375 "/></g></g></g><g fill="#000000" fill-opacity="1"><g transform="translate(193.155596, 191.984396)"><g><path d="M 31.671875 -20.78125 C 31.671875 -18.945312 31.175781 -17.289062 30.1875 -15.8125 C 29.195312 -14.332031 27.757812 -13.242188 25.875 -12.546875 L 32.546875 0 L 21.734375 0 L 16.421875 -10.9375 L 12.84375 -10.9375 L 12.84375 0 L 3.21875 0 L 3.21875 -29.96875 L 21.5625 -29.96875 C 23.707031 -29.96875 25.539062 -29.550781 27.0625 -28.71875 C 28.59375 -27.894531 29.742188 -26.78125 30.515625 -25.375 C 31.285156 -23.96875 31.671875 -22.4375 31.671875 -20.78125 Z M 21.875 -20.390625 C 21.875 -21.171875 21.609375 -21.820312 21.078125 -22.34375 C 20.554688 -22.863281 19.921875 -23.125 19.171875 -23.125 L 12.84375 -23.125 L 12.84375 -17.59375 L 19.171875 -17.59375 C 19.921875 -17.59375 20.554688 -17.863281 21.078125 -18.40625 C 21.609375 -18.945312 21.875 -19.609375 21.875 -20.390625 Z M 21.875 -20.390625 "/></g></g></g><g fill="#000000" fill-opacity="1"><g transform="translate(227.050377, 191.984396)"><g><path d="M 3.21875 -29.96875 L 29.140625 -29.96875 L 29.140625 -22.78125 L 12.84375 -22.78125 L 12.84375 -18.640625 L 26.796875 -18.640625 L 26.796875 -11.765625 L 12.84375 -11.765625 L 12.84375 -7.1875 L 29.453125 -7.1875 L 29.453125 0 L 3.21875 0 Z M 3.21875 -29.96875 "/></g></g></g></svg>