<svg xmlns="http://www.w3.org/2000/svg" xmlns:xlink="http://www.w3.org/1999/xlink" width="500" zoomAndPan="magnify" viewBox="0 0 375 374.999991" height="500" preserveAspectRatio="xMidYMid meet" version="1.0"><defs><g/><clipPath id="eef1c4b7d5"><path d="M 64 161.1875 L 121 161.1875 L 121 197 L 64 197 Z M 64 161.1875 " clip-rule="nonzero"/></clipPath><clipPath id="c42f755540"><path d="M 57.546875 178 L 114 178 L 114 213.6875 L 57.546875 213.6875 Z M 57.546875 178 " clip-rule="nonzero"/></clipPath></defs><rect x="-37.5" width="450" fill="#ffffff" y="-37.499999" height="449.999989" fill-opacity="1"/><rect x="-37.5" width="450" fill="#ffffff" y="-37.499999" height="449.999989" fill-opacity="1"/><g clip-path="url(#eef1c4b7d5)"><path fill="#e87a00" d="M 103.457031 170.53125 L 88.625 196.222656 L 100.773438 196.222656 L 120.933594 161.308594 L 64.792969 161.308594 L 64.792969 170.53125 L 103.457031 170.53125 " fill-opacity="1" fill-rule="nonzero"/></g><g clip-path="url(#c42f755540)"><path fill="#000000" d="M 57.542969 213.683594 L 113.679688 213.683594 L 113.679688 204.457031 L 75.015625 204.457031 L 89.851562 178.765625 L 77.699219 178.765625 L 57.542969 213.683594 " fill-opacity="1" fill-rule="nonzero"/></g><g fill="#000000" fill-opacity="1"><g transform="translate(117.874727, 196.251554)"><g><path d="M 13.3125 -25.65625 C 16.53125 -25.65625 19.175781 -25 21.25 -23.6875 C 23.332031 -22.382812 24.398438 -20.453125 24.453125 -17.890625 L 24.453125 -17.453125 L 16.859375 -17.453125 L 16.859375 -17.59375 C 16.859375 -18.320312 16.585938 -18.929688 16.046875 -19.421875 C 15.515625 -19.910156 14.695312 -20.15625 13.59375 -20.15625 C 12.519531 -20.15625 11.695312 -19.992188 11.125 -19.671875 C 10.550781 -19.359375 10.265625 -18.972656 10.265625 -18.515625 C 10.265625 -17.847656 10.65625 -17.351562 11.4375 -17.03125 C 12.21875 -16.71875 13.476562 -16.394531 15.21875 -16.0625 C 17.238281 -15.644531 18.898438 -15.207031 20.203125 -14.75 C 21.515625 -14.300781 22.660156 -13.5625 23.640625 -12.53125 C 24.617188 -11.507812 25.117188 -10.117188 25.140625 -8.359375 C 25.140625 -5.378906 24.128906 -3.164062 22.109375 -1.71875 C 20.097656 -0.28125 17.410156 0.4375 14.046875 0.4375 C 10.109375 0.4375 7.046875 -0.21875 4.859375 -1.53125 C 2.671875 -2.851562 1.578125 -5.191406 1.578125 -8.546875 L 9.234375 -8.546875 C 9.234375 -7.273438 9.5625 -6.425781 10.21875 -6 C 10.882812 -5.570312 11.914062 -5.359375 13.3125 -5.359375 C 14.332031 -5.359375 15.175781 -5.46875 15.84375 -5.6875 C 16.519531 -5.90625 16.859375 -6.351562 16.859375 -7.03125 C 16.859375 -7.644531 16.484375 -8.101562 15.734375 -8.40625 C 14.992188 -8.71875 13.78125 -9.046875 12.09375 -9.390625 C 10.039062 -9.828125 8.34375 -10.28125 7 -10.75 C 5.65625 -11.226562 4.484375 -12.015625 3.484375 -13.109375 C 2.484375 -14.210938 1.984375 -15.707031 1.984375 -17.59375 C 1.984375 -20.351562 3.050781 -22.382812 5.1875 -23.6875 C 7.320312 -25 10.03125 -25.65625 13.3125 -25.65625 Z M 13.3125 -25.65625 "/></g></g></g><g fill="#000000" fill-opacity="1"><g transform="translate(144.337492, 196.251554)"><g><path d="M 19.71875 0 L 19.71875 -9.5625 L 10.8125 -9.5625 L 10.8125 0 L 2.71875 0 L 2.71875 -25.21875 L 10.8125 -25.21875 L 10.8125 -16.015625 L 19.71875 -16.015625 L 19.71875 -25.21875 L 27.828125 -25.21875 L 27.828125 0 Z M 19.71875 0 "/></g></g></g><g fill="#000000" fill-opacity="1"><g transform="translate(174.868637, 196.251554)"><g><path d="M 19.609375 0 L 18.546875 -3.5625 L 9.71875 -3.5625 L 8.65625 0 L 0.359375 0 L 9.5625 -25.21875 L 18.984375 -25.21875 L 28.1875 0 Z M 11.40625 -9.203125 L 16.859375 -9.203125 L 14.21875 -18.1875 L 14.078125 -18.1875 Z M 11.40625 -9.203125 "/></g></g></g><g fill="#000000" fill-opacity="1"><g transform="translate(203.383919, 196.251554)"><g><path d="M 26.65625 -17.484375 C 26.65625 -15.941406 26.238281 -14.546875 25.40625 -13.296875 C 24.570312 -12.054688 23.363281 -11.144531 21.78125 -10.5625 L 27.375 0 L 18.296875 0 L 13.8125 -9.203125 L 10.8125 -9.203125 L 10.8125 0 L 2.71875 0 L 2.71875 -25.21875 L 18.140625 -25.21875 C 19.953125 -25.21875 21.5 -24.867188 22.78125 -24.171875 C 24.0625 -23.472656 25.023438 -22.53125 25.671875 -21.34375 C 26.328125 -20.164062 26.65625 -18.878906 26.65625 -17.484375 Z M 18.40625 -17.15625 C 18.40625 -17.8125 18.179688 -18.359375 17.734375 -18.796875 C 17.296875 -19.242188 16.757812 -19.46875 16.125 -19.46875 L 10.8125 -19.46875 L 10.8125 -14.8125 L 16.125 -14.8125 C 16.757812 -14.8125 17.296875 -15.035156 17.734375 -15.484375 C 18.179688 -15.941406 18.40625 -16.5 18.40625 -17.15625 Z M 18.40625 -17.15625 "/></g></g></g><g fill="#000000" fill-opacity="1"><g transform="translate(231.8992, 196.251554)"><g><path d="M 2.71875 -25.21875 L 24.515625 -25.21875 L 24.515625 -19.171875 L 10.8125 -19.171875 L 10.8125 -15.6875 L 22.546875 -15.6875 L 22.546875 -9.890625 L 10.8125 -9.890625 L 10.8125 -6.046875 L 24.78125 -6.046875 L 24.78125 0 L 2.71875 0 Z M 2.71875 -25.21875 "/></g></g></g><g fill="#000000" fill-opacity="1"><g transform="translate(158.32246, 209.89526)"><g><path d="M 3.9375 0.109375 C 3.269531 0.109375 2.679688 -0.0234375 2.171875 -0.296875 C 1.671875 -0.578125 1.273438 -0.992188 0.984375 -1.546875 C 0.703125 -2.097656 0.5625 -2.78125 0.5625 -3.59375 C 0.5625 -4.40625 0.703125 -5.085938 0.984375 -5.640625 C 1.273438 -6.191406 1.671875 -6.601562 2.171875 -6.875 C 2.679688 -7.15625 3.269531 -7.296875 3.9375 -7.296875 C 4.625 -7.296875 5.207031 -7.160156 5.6875 -6.890625 C 6.175781 -6.617188 6.523438 -6.207031 6.734375 -5.65625 L 5.6875 -5.015625 L 5.578125 -5.03125 C 5.421875 -5.394531 5.207031 -5.660156 4.9375 -5.828125 C 4.675781 -5.992188 4.34375 -6.078125 3.9375 -6.078125 C 3.332031 -6.078125 2.863281 -5.878906 2.53125 -5.484375 C 2.195312 -5.085938 2.03125 -4.457031 2.03125 -3.59375 C 2.03125 -2.738281 2.195312 -2.113281 2.53125 -1.71875 C 2.863281 -1.320312 3.332031 -1.125 3.9375 -1.125 C 4.863281 -1.125 5.4375 -1.578125 5.65625 -2.484375 L 5.765625 -2.484375 L 6.828125 -1.9375 C 6.628906 -1.257812 6.289062 -0.75 5.8125 -0.40625 C 5.332031 -0.0625 4.707031 0.109375 3.9375 0.109375 Z M 3.9375 0.109375 "/></g></g></g><g fill="#000000" fill-opacity="1"><g transform="translate(165.374508, 209.89526)"><g><path d="M 3.921875 0.109375 C 3.265625 0.109375 2.679688 -0.0234375 2.171875 -0.296875 C 1.671875 -0.566406 1.273438 -0.976562 0.984375 -1.53125 C 0.703125 -2.082031 0.5625 -2.769531 0.5625 -3.59375 C 0.5625 -4.414062 0.703125 -5.101562 0.984375 -5.65625 C 1.273438 -6.207031 1.671875 -6.617188 2.171875 -6.890625 C 2.679688 -7.160156 3.265625 -7.296875 3.921875 -7.296875 C 4.578125 -7.296875 5.15625 -7.160156 5.65625 -6.890625 C 6.164062 -6.628906 6.5625 -6.21875 6.84375 -5.65625 C 7.125 -5.101562 7.265625 -4.414062 7.265625 -3.59375 C 7.265625 -2.769531 7.125 -2.082031 6.84375 -1.53125 C 6.5625 -0.976562 6.164062 -0.566406 5.65625 -0.296875 C 5.15625 -0.0234375 4.578125 0.109375 3.921875 0.109375 Z M 3.921875 -1.125 C 4.535156 -1.125 5 -1.320312 5.3125 -1.71875 C 5.632812 -2.113281 5.796875 -2.738281 5.796875 -3.59375 C 5.796875 -4.457031 5.632812 -5.082031 5.3125 -5.46875 C 5 -5.863281 4.535156 -6.0625 3.921875 -6.0625 C 3.304688 -6.0625 2.835938 -5.863281 2.515625 -5.46875 C 2.191406 -5.082031 2.03125 -4.457031 2.03125 -3.59375 C 2.03125 -2.738281 2.191406 -2.113281 2.515625 -1.71875 C 2.835938 -1.320312 3.304688 -1.125 3.921875 -1.125 Z M 3.921875 -1.125 "/></g></g></g><g fill="#000000" fill-opacity="1"><g transform="translate(173.208478, 209.89526)"><g><path d="M 2.3125 0 L 0.9375 0 L 0.9375 -7.1875 L 2.5625 -7.1875 L 5.453125 -2.5625 L 5.578125 -2.578125 L 5.578125 -7.1875 L 6.953125 -7.1875 L 6.953125 0 L 5.484375 0 L 2.4375 -4.953125 L 2.3125 -4.9375 Z M 2.3125 0 "/></g></g></g><g fill="#000000" fill-opacity="1"><g transform="translate(181.091626, 209.89526)"><g><path d="M 2.3125 0 L 0.9375 0 L 0.9375 -7.1875 L 2.5625 -7.1875 L 5.453125 -2.5625 L 5.578125 -2.578125 L 5.578125 -7.1875 L 6.953125 -7.1875 L 6.953125 0 L 5.484375 0 L 2.4375 -4.953125 L 2.3125 -4.9375 Z M 2.3125 0 "/></g></g></g><g fill="#000000" fill-opacity="1"><g transform="translate(188.974774, 209.89526)"><g><path d="M 2.359375 -3.15625 L 2.359375 -1.1875 L 5.796875 -1.1875 L 5.796875 0 L 0.9375 0 L 0.9375 -7.1875 L 5.71875 -7.1875 L 5.71875 -6 L 2.359375 -6 L 2.359375 -4.328125 L 5.296875 -4.328125 L 5.296875 -3.15625 Z M 2.359375 -3.15625 "/></g></g></g><g fill="#000000" fill-opacity="1"><g transform="translate(195.156381, 209.89526)"><g><path d="M 3.9375 0.109375 C 3.269531 0.109375 2.679688 -0.0234375 2.171875 -0.296875 C 1.671875 -0.578125 1.273438 -0.992188 0.984375 -1.546875 C 0.703125 -2.097656 0.5625 -2.78125 0.5625 -3.59375 C 0.5625 -4.40625 0.703125 -5.085938 0.984375 -5.640625 C 1.273438 -6.191406 1.671875 -6.601562 2.171875 -6.875 C 2.679688 -7.15625 3.269531 -7.296875 3.9375 -7.296875 C 4.625 -7.296875 5.207031 -7.160156 5.6875 -6.890625 C 6.175781 -6.617188 6.523438 -6.207031 6.734375 -5.65625 L 5.6875 -5.015625 L 5.578125 -5.03125 C 5.421875 -5.394531 5.207031 -5.660156 4.9375 -5.828125 C 4.675781 -5.992188 4.34375 -6.078125 3.9375 -6.078125 C 3.332031 -6.078125 2.863281 -5.878906 2.53125 -5.484375 C 2.195312 -5.085938 2.03125 -4.457031 2.03125 -3.59375 C 2.03125 -2.738281 2.195312 -2.113281 2.53125 -1.71875 C 2.863281 -1.320312 3.332031 -1.125 3.9375 -1.125 C 4.863281 -1.125 5.4375 -1.578125 5.65625 -2.484375 L 5.765625 -2.484375 L 6.828125 -1.9375 C 6.628906 -1.257812 6.289062 -0.75 5.8125 -0.40625 C 5.332031 -0.0625 4.707031 0.109375 3.9375 0.109375 Z M 3.9375 0.109375 "/></g></g></g><g fill="#000000" fill-opacity="1"><g transform="translate(202.208429, 209.89526)"><g><path d="M 5.765625 -7.1875 L 5.765625 -6 L 3.6875 -6 L 3.6875 0 L 2.28125 0 L 2.28125 -6 L 0.203125 -6 L 0.203125 -7.1875 Z M 5.765625 -7.1875 "/></g></g></g><g fill="#000000" fill-opacity="1"><g transform="translate(208.168738, 209.89526)"><g><path d="M 2.359375 0 L 0.9375 0 L 0.9375 -7.1875 L 2.359375 -7.1875 Z M 2.359375 0 "/></g></g></g><g fill="#000000" fill-opacity="1"><g transform="translate(211.463628, 209.89526)"><g><path d="M 2.3125 0 L 0.9375 0 L 0.9375 -7.1875 L 2.5625 -7.1875 L 5.453125 -2.5625 L 5.578125 -2.578125 L 5.578125 -7.1875 L 6.953125 -7.1875 L 6.953125 0 L 5.484375 0 L 2.4375 -4.953125 L 2.3125 -4.9375 Z M 2.3125 0 "/></g></g></g><g fill="#000000" fill-opacity="1"><g transform="translate(219.346776, 209.89526)"><g><path d="M 3.5 0.109375 C 2.894531 0.109375 2.375 -0.0234375 1.9375 -0.296875 C 1.5 -0.578125 1.160156 -0.992188 0.921875 -1.546875 C 0.679688 -2.097656 0.5625 -2.78125 0.5625 -3.59375 C 0.5625 -4.414062 0.703125 -5.101562 0.984375 -5.65625 C 1.273438 -6.207031 1.671875 -6.617188 2.171875 -6.890625 C 2.679688 -7.160156 3.273438 -7.296875 3.953125 -7.296875 C 4.640625 -7.296875 5.222656 -7.164062 5.703125 -6.90625 C 6.191406 -6.65625 6.535156 -6.273438 6.734375 -5.765625 L 5.6875 -5.140625 L 5.578125 -5.140625 C 5.421875 -5.460938 5.207031 -5.695312 4.9375 -5.84375 C 4.675781 -6 4.347656 -6.078125 3.953125 -6.078125 C 3.328125 -6.078125 2.847656 -5.878906 2.515625 -5.484375 C 2.191406 -5.085938 2.03125 -4.457031 2.03125 -3.59375 C 2.03125 -2.726562 2.179688 -2.097656 2.484375 -1.703125 C 2.796875 -1.304688 3.253906 -1.109375 3.859375 -1.109375 C 4.367188 -1.109375 4.75 -1.222656 5 -1.453125 C 5.25 -1.691406 5.375 -2.039062 5.375 -2.5 L 5.375 -2.8125 L 3.671875 -2.8125 L 3.671875 -3.96875 L 6.78125 -3.96875 L 6.78125 0 L 5.421875 0 L 5.421875 -0.96875 L 5.3125 -0.984375 C 5.164062 -0.640625 4.941406 -0.367188 4.640625 -0.171875 C 4.347656 0.015625 3.96875 0.109375 3.5 0.109375 Z M 3.5 0.109375 "/></g></g></g><g fill="#000000" fill-opacity="1"><g transform="translate(226.846339, 209.89526)"><g/></g></g><g fill="#000000" fill-opacity="1"><g transform="translate(229.221611, 209.89526)"><g><path d="M 3.71875 -7.1875 C 4.226562 -7.1875 4.664062 -7.09375 5.03125 -6.90625 C 5.394531 -6.71875 5.671875 -6.453125 5.859375 -6.109375 C 6.046875 -5.773438 6.140625 -5.382812 6.140625 -4.9375 C 6.140625 -4.488281 6.046875 -4.09375 5.859375 -3.75 C 5.671875 -3.414062 5.394531 -3.15625 5.03125 -2.96875 C 4.664062 -2.78125 4.226562 -2.6875 3.71875 -2.6875 L 2.359375 -2.6875 L 2.359375 0 L 0.9375 0 L 0.9375 -7.1875 Z M 3.53125 -3.8125 C 4.320312 -3.8125 4.71875 -4.1875 4.71875 -4.9375 C 4.71875 -5.6875 4.320312 -6.0625 3.53125 -6.0625 L 2.359375 -6.0625 L 2.359375 -3.8125 Z M 3.53125 -3.8125 "/></g></g></g><g fill="#000000" fill-opacity="1"><g transform="translate(235.79172, 209.89526)"><g><path d="M 2.359375 -3.15625 L 2.359375 -1.1875 L 5.796875 -1.1875 L 5.796875 0 L 0.9375 0 L 0.9375 -7.1875 L 5.71875 -7.1875 L 5.71875 -6 L 2.359375 -6 L 2.359375 -4.328125 L 5.296875 -4.328125 L 5.296875 -3.15625 Z M 2.359375 -3.15625 "/></g></g></g><g fill="#000000" fill-opacity="1"><g transform="translate(241.973327, 209.89526)"><g><path d="M 3.921875 0.109375 C 3.265625 0.109375 2.679688 -0.0234375 2.171875 -0.296875 C 1.671875 -0.566406 1.273438 -0.976562 0.984375 -1.53125 C 0.703125 -2.082031 0.5625 -2.769531 0.5625 -3.59375 C 0.5625 -4.414062 0.703125 -5.101562 0.984375 -5.65625 C 1.273438 -6.207031 1.671875 -6.617188 2.171875 -6.890625 C 2.679688 -7.160156 3.265625 -7.296875 3.921875 -7.296875 C 4.578125 -7.296875 5.15625 -7.160156 5.65625 -6.890625 C 6.164062 -6.628906 6.5625 -6.21875 6.84375 -5.65625 C 7.125 -5.101562 7.265625 -4.414062 7.265625 -3.59375 C 7.265625 -2.769531 7.125 -2.082031 6.84375 -1.53125 C 6.5625 -0.976562 6.164062 -0.566406 5.65625 -0.296875 C 5.15625 -0.0234375 4.578125 0.109375 3.921875 0.109375 Z M 3.921875 -1.125 C 4.535156 -1.125 5 -1.320312 5.3125 -1.71875 C 5.632812 -2.113281 5.796875 -2.738281 5.796875 -3.59375 C 5.796875 -4.457031 5.632812 -5.082031 5.3125 -5.46875 C 5 -5.863281 4.535156 -6.0625 3.921875 -6.0625 C 3.304688 -6.0625 2.835938 -5.863281 2.515625 -5.46875 C 2.191406 -5.082031 2.03125 -4.457031 2.03125 -3.59375 C 2.03125 -2.738281 2.191406 -2.113281 2.515625 -1.71875 C 2.835938 -1.320312 3.304688 -1.125 3.921875 -1.125 Z M 3.921875 -1.125 "/></g></g></g><g fill="#000000" fill-opacity="1"><g transform="translate(249.807298, 209.89526)"><g><path d="M 3.71875 -7.1875 C 4.226562 -7.1875 4.664062 -7.09375 5.03125 -6.90625 C 5.394531 -6.71875 5.671875 -6.453125 5.859375 -6.109375 C 6.046875 -5.773438 6.140625 -5.382812 6.140625 -4.9375 C 6.140625 -4.488281 6.046875 -4.09375 5.859375 -3.75 C 5.671875 -3.414062 5.394531 -3.15625 5.03125 -2.96875 C 4.664062 -2.78125 4.226562 -2.6875 3.71875 -2.6875 L 2.359375 -2.6875 L 2.359375 0 L 0.9375 0 L 0.9375 -7.1875 Z M 3.53125 -3.8125 C 4.320312 -3.8125 4.71875 -4.1875 4.71875 -4.9375 C 4.71875 -5.6875 4.320312 -6.0625 3.53125 -6.0625 L 2.359375 -6.0625 L 2.359375 -3.8125 Z M 3.53125 -3.8125 "/></g></g></g><g fill="#000000" fill-opacity="1"><g transform="translate(256.377407, 209.89526)"><g><path d="M 2.359375 -7.1875 L 2.359375 -1.1875 L 5.59375 -1.1875 L 5.59375 0 L 0.9375 0 L 0.9375 -7.1875 Z M 2.359375 -7.1875 "/></g></g></g><g fill="#000000" fill-opacity="1"><g transform="translate(262.200019, 209.89526)"><g><path d="M 2.359375 -3.15625 L 2.359375 -1.1875 L 5.796875 -1.1875 L 5.796875 0 L 0.9375 0 L 0.9375 -7.1875 L 5.71875 -7.1875 L 5.71875 -6 L 2.359375 -6 L 2.359375 -4.328125 L 5.296875 -4.328125 L 5.296875 -3.15625 Z M 2.359375 -3.15625 "/></g></g></g><g fill="#e87a00" fill-opacity="1"><g transform="translate(255.604617, 195.887682)"><g><path d="M 20.75 0 L 10.15625 -12.25 L 10.15625 0 L 2.71875 0 L 2.71875 -25.21875 L 9.78125 -25.21875 L 20.375 -12.796875 L 20.375 -25.21875 L 27.828125 -25.21875 L 27.828125 0 Z M 20.75 0 "/></g></g></g><g fill="#e87a00" fill-opacity="1"><g transform="translate(286.129498, 195.887682)"><g><path d="M 2.71875 -25.21875 L 24.515625 -25.21875 L 24.515625 -19.171875 L 10.8125 -19.171875 L 10.8125 -15.6875 L 22.546875 -15.6875 L 22.546875 -9.890625 L 10.8125 -9.890625 L 10.8125 -6.046875 L 24.78125 -6.046875 L 24.78125 0 L 2.71875 0 Z M 2.71875 -25.21875 "/></g></g></g><g fill="#e87a00" fill-opacity="1"><g transform="translate(312.586841, 195.887682)"><g><path d="M 17.234375 -18.765625 L 17.234375 0 L 9.125 0 L 9.125 -18.765625 L 0.84375 -18.765625 L 0.84375 -25.21875 L 25.46875 -25.21875 L 25.46875 -18.765625 Z M 17.234375 -18.765625 "/></g></g></g></svg>