<svg xmlns="http://www.w3.org/2000/svg" xmlns:xlink="http://www.w3.org/1999/xlink" width="1024" zoomAndPan="magnify" viewBox="0 0 768 374.999991" height="500" preserveAspectRatio="xMidYMid meet" version="1.0"><defs><g/><clipPath id="db6b277f52"><path d="M 21 165 L 167 165 L 167 259 L 21 259 Z M 21 165 " clip-rule="nonzero"/></clipPath><clipPath id="5e25d63ef7"><path d="M 189.042969 123.730469 L 184.707031 258.660156 L 21.292969 253.40625 L 25.628906 118.476562 Z M 189.042969 123.730469 " clip-rule="nonzero"/></clipPath><clipPath id="58c49088dc"><path d="M 189.042969 123.730469 L 184.707031 258.660156 L 21.292969 253.40625 L 25.628906 118.476562 Z M 189.042969 123.730469 " clip-rule="nonzero"/></clipPath><clipPath id="731fe5772f"><path d="M 43 119 L 190 119 L 190 213 L 43 213 Z M 43 119 " clip-rule="nonzero"/></clipPath><clipPath id="9470261107"><path d="M 189.042969 123.730469 L 184.707031 258.660156 L 21.292969 253.40625 L 25.628906 118.476562 Z M 189.042969 123.730469 " clip-rule="nonzero"/></clipPath><clipPath id="cdac8bb51a"><path d="M 189.042969 123.730469 L 184.707031 258.660156 L 21.292969 253.40625 L 25.628906 118.476562 Z M 189.042969 123.730469 " clip-rule="nonzero"/></clipPath></defs><g clip-path="url(#db6b277f52)"><g clip-path="url(#5e25d63ef7)"><g clip-path="url(#58c49088dc)"><path fill="#e87a00" d="M 67.027344 231.246094 L 107.421875 166.199219 L 76.082031 165.191406 L 21.183594 253.59375 L 166.003906 258.246094 L 166.769531 234.449219 L 67.027344 231.246094 " fill-opacity="1" fill-rule="nonzero"/></g></g></g><g clip-path="url(#731fe5772f)"><g clip-path="url(#9470261107)"><g clip-path="url(#cdac8bb51a)"><path fill="#ffffff" d="M 189.054688 123.742188 L 44.234375 119.085938 L 43.472656 142.882812 L 143.210938 146.089844 L 102.816406 211.132812 L 134.15625 212.140625 L 189.054688 123.742188 " fill-opacity="1" fill-rule="nonzero"/></g></g></g><g fill="#153448" fill-opacity="1"><g transform="translate(206.059889, 247.490577)"><g><path d="M 10.15625 0.265625 C 8.4375 0.265625 6.925781 -0.0859375 5.625 -0.796875 C 4.320312 -1.515625 3.300781 -2.582031 2.5625 -4 C 1.820312 -5.425781 1.453125 -7.1875 1.453125 -9.28125 C 1.453125 -11.375 1.820312 -13.132812 2.5625 -14.5625 C 3.300781 -15.988281 4.320312 -17.054688 5.625 -17.765625 C 6.925781 -18.484375 8.4375 -18.84375 10.15625 -18.84375 C 11.9375 -18.84375 13.453125 -18.492188 14.703125 -17.796875 C 15.953125 -17.097656 16.84375 -16.03125 17.375 -14.59375 L 14.703125 -12.953125 L 14.375 -12.96875 C 13.976562 -13.9375 13.4375 -14.628906 12.75 -15.046875 C 12.070312 -15.460938 11.207031 -15.671875 10.15625 -15.671875 C 8.613281 -15.671875 7.410156 -15.160156 6.546875 -14.140625 C 5.679688 -13.117188 5.25 -11.5 5.25 -9.28125 C 5.25 -7.070312 5.679688 -5.457031 6.546875 -4.4375 C 7.410156 -3.414062 8.613281 -2.90625 10.15625 -2.90625 C 12.5625 -2.90625 14.035156 -4.078125 14.578125 -6.421875 L 14.90625 -6.421875 L 17.609375 -5.015625 C 17.097656 -3.253906 16.226562 -1.929688 15 -1.046875 C 13.769531 -0.171875 12.15625 0.265625 10.15625 0.265625 Z M 10.15625 0.265625 "/></g></g></g><g fill="#153448" fill-opacity="1"><g transform="translate(224.258668, 247.490577)"><g><path d="M 10.125 0.265625 C 8.425781 0.265625 6.925781 -0.078125 5.625 -0.765625 C 4.320312 -1.460938 3.300781 -2.523438 2.5625 -3.953125 C 1.820312 -5.378906 1.453125 -7.15625 1.453125 -9.28125 C 1.453125 -11.40625 1.820312 -13.179688 2.5625 -14.609375 C 3.300781 -16.035156 4.320312 -17.097656 5.625 -17.796875 C 6.925781 -18.492188 8.425781 -18.84375 10.125 -18.84375 C 11.820312 -18.84375 13.316406 -18.492188 14.609375 -17.796875 C 15.910156 -17.109375 16.925781 -16.046875 17.65625 -14.609375 C 18.394531 -13.179688 18.765625 -11.40625 18.765625 -9.28125 C 18.765625 -7.15625 18.394531 -5.375 17.65625 -3.9375 C 16.925781 -2.507812 15.910156 -1.453125 14.609375 -0.765625 C 13.316406 -0.078125 11.820312 0.265625 10.125 0.265625 Z M 10.125 -2.921875 C 11.695312 -2.921875 12.898438 -3.425781 13.734375 -4.4375 C 14.566406 -5.445312 14.984375 -7.0625 14.984375 -9.28125 C 14.984375 -11.5 14.566406 -13.113281 13.734375 -14.125 C 12.898438 -15.144531 11.695312 -15.65625 10.125 -15.65625 C 8.539062 -15.65625 7.332031 -15.144531 6.5 -14.125 C 5.664062 -13.113281 5.25 -11.5 5.25 -9.28125 C 5.25 -7.0625 5.664062 -5.445312 6.5 -4.4375 C 7.332031 -3.425781 8.539062 -2.921875 10.125 -2.921875 Z M 10.125 -2.921875 "/></g></g></g><g fill="#153448" fill-opacity="1"><g transform="translate(244.475303, 247.490577)"><g><path d="M 5.96875 0 L 2.40625 0 L 2.40625 -18.578125 L 6.625 -18.578125 L 14.078125 -6.609375 L 14.40625 -6.65625 L 14.40625 -18.578125 L 17.9375 -18.578125 L 17.9375 0 L 14.171875 0 L 6.28125 -12.78125 L 5.96875 -12.734375 Z M 5.96875 0 "/></g></g></g><g fill="#153448" fill-opacity="1"><g transform="translate(264.818847, 247.490577)"><g><path d="M 5.96875 0 L 2.40625 0 L 2.40625 -18.578125 L 6.625 -18.578125 L 14.078125 -6.609375 L 14.40625 -6.65625 L 14.40625 -18.578125 L 17.9375 -18.578125 L 17.9375 0 L 14.171875 0 L 6.28125 -12.78125 L 5.96875 -12.734375 Z M 5.96875 0 "/></g></g></g><g fill="#153448" fill-opacity="1"><g transform="translate(285.162391, 247.490577)"><g><path d="M 6.078125 -8.15625 L 6.078125 -3.078125 L 14.953125 -3.078125 L 14.953125 0 L 2.40625 0 L 2.40625 -18.578125 L 14.75 -18.578125 L 14.75 -15.5 L 6.078125 -15.5 L 6.078125 -11.15625 L 13.65625 -11.15625 L 13.65625 -8.15625 Z M 6.078125 -8.15625 "/></g></g></g><g fill="#153448" fill-opacity="1"><g transform="translate(301.114877, 247.490577)"><g><path d="M 10.15625 0.265625 C 8.4375 0.265625 6.925781 -0.0859375 5.625 -0.796875 C 4.320312 -1.515625 3.300781 -2.582031 2.5625 -4 C 1.820312 -5.425781 1.453125 -7.1875 1.453125 -9.28125 C 1.453125 -11.375 1.820312 -13.132812 2.5625 -14.5625 C 3.300781 -15.988281 4.320312 -17.054688 5.625 -17.765625 C 6.925781 -18.484375 8.4375 -18.84375 10.15625 -18.84375 C 11.9375 -18.84375 13.453125 -18.492188 14.703125 -17.796875 C 15.953125 -17.097656 16.84375 -16.03125 17.375 -14.59375 L 14.703125 -12.953125 L 14.375 -12.96875 C 13.976562 -13.9375 13.4375 -14.628906 12.75 -15.046875 C 12.070312 -15.460938 11.207031 -15.671875 10.15625 -15.671875 C 8.613281 -15.671875 7.410156 -15.160156 6.546875 -14.140625 C 5.679688 -13.117188 5.25 -11.5 5.25 -9.28125 C 5.25 -7.070312 5.679688 -5.457031 6.546875 -4.4375 C 7.410156 -3.414062 8.613281 -2.90625 10.15625 -2.90625 C 12.5625 -2.90625 14.035156 -4.078125 14.578125 -6.421875 L 14.90625 -6.421875 L 17.609375 -5.015625 C 17.097656 -3.253906 16.226562 -1.929688 15 -1.046875 C 13.769531 -0.171875 12.15625 0.265625 10.15625 0.265625 Z M 10.15625 0.265625 "/></g></g></g><g fill="#153448" fill-opacity="1"><g transform="translate(319.313656, 247.490577)"><g><path d="M 14.890625 -18.578125 L 14.890625 -15.484375 L 9.53125 -15.484375 L 9.53125 0 L 5.875 0 L 5.875 -15.484375 L 0.515625 -15.484375 L 0.515625 -18.578125 Z M 14.890625 -18.578125 "/></g></g></g><g fill="#153448" fill-opacity="1"><g transform="translate(334.69505, 247.490577)"><g><path d="M 6.078125 0 L 2.40625 0 L 2.40625 -18.578125 L 6.078125 -18.578125 Z M 6.078125 0 "/></g></g></g><g fill="#153448" fill-opacity="1"><g transform="translate(343.197967, 247.490577)"><g><path d="M 5.96875 0 L 2.40625 0 L 2.40625 -18.578125 L 6.625 -18.578125 L 14.078125 -6.609375 L 14.40625 -6.65625 L 14.40625 -18.578125 L 17.9375 -18.578125 L 17.9375 0 L 14.171875 0 L 6.28125 -12.78125 L 5.96875 -12.734375 Z M 5.96875 0 "/></g></g></g><g fill="#153448" fill-opacity="1"><g transform="translate(363.541511, 247.490577)"><g><path d="M 9.015625 0.265625 C 7.460938 0.265625 6.117188 -0.0859375 4.984375 -0.796875 C 3.859375 -1.503906 2.988281 -2.570312 2.375 -4 C 1.757812 -5.425781 1.453125 -7.1875 1.453125 -9.28125 C 1.453125 -11.40625 1.820312 -13.179688 2.5625 -14.609375 C 3.300781 -16.035156 4.320312 -17.097656 5.625 -17.796875 C 6.9375 -18.492188 8.457031 -18.84375 10.1875 -18.84375 C 11.96875 -18.84375 13.484375 -18.507812 14.734375 -17.84375 C 15.984375 -17.1875 16.863281 -16.207031 17.375 -14.90625 L 14.703125 -13.28125 L 14.375 -13.28125 C 14 -14.113281 13.460938 -14.71875 12.765625 -15.09375 C 12.078125 -15.476562 11.21875 -15.671875 10.1875 -15.671875 C 8.582031 -15.671875 7.359375 -15.164062 6.515625 -14.15625 C 5.671875 -13.144531 5.25 -11.519531 5.25 -9.28125 C 5.25 -7.039062 5.644531 -5.410156 6.4375 -4.390625 C 7.226562 -3.378906 8.398438 -2.875 9.953125 -2.875 C 11.285156 -2.875 12.269531 -3.171875 12.90625 -3.765625 C 13.539062 -4.367188 13.859375 -5.269531 13.859375 -6.46875 L 13.859375 -7.265625 L 9.46875 -7.265625 L 9.46875 -10.25 L 17.5 -10.25 L 17.5 0 L 14 0 L 14 -2.484375 L 13.734375 -2.53125 C 13.347656 -1.632812 12.765625 -0.941406 11.984375 -0.453125 C 11.210938 0.0234375 10.222656 0.265625 9.015625 0.265625 Z M 9.015625 0.265625 "/></g></g></g><g fill="#153448" fill-opacity="1"><g transform="translate(382.895163, 247.490577)"><g/></g></g><g fill="#153448" fill-opacity="1"><g transform="translate(389.024877, 247.490577)"><g><path d="M 9.59375 -18.578125 C 10.914062 -18.578125 12.050781 -18.332031 13 -17.84375 C 13.945312 -17.351562 14.660156 -16.671875 15.140625 -15.796875 C 15.617188 -14.921875 15.859375 -13.898438 15.859375 -12.734375 C 15.859375 -11.578125 15.617188 -10.5625 15.140625 -9.6875 C 14.660156 -8.820312 13.945312 -8.144531 13 -7.65625 C 12.050781 -7.164062 10.914062 -6.921875 9.59375 -6.921875 L 6.078125 -6.921875 L 6.078125 0 L 2.40625 0 L 2.40625 -18.578125 Z M 9.109375 -9.828125 C 11.148438 -9.828125 12.171875 -10.796875 12.171875 -12.734375 C 12.171875 -14.679688 11.148438 -15.65625 9.109375 -15.65625 L 6.078125 -15.65625 L 6.078125 -9.828125 Z M 9.109375 -9.828125 "/></g></g></g><g fill="#153448" fill-opacity="1"><g transform="translate(405.979946, 247.490577)"><g><path d="M 6.078125 -8.15625 L 6.078125 -3.078125 L 14.953125 -3.078125 L 14.953125 0 L 2.40625 0 L 2.40625 -18.578125 L 14.75 -18.578125 L 14.75 -15.5 L 6.078125 -15.5 L 6.078125 -11.15625 L 13.65625 -11.15625 L 13.65625 -8.15625 Z M 6.078125 -8.15625 "/></g></g></g><g fill="#153448" fill-opacity="1"><g transform="translate(421.932432, 247.490577)"><g><path d="M 10.125 0.265625 C 8.425781 0.265625 6.925781 -0.078125 5.625 -0.765625 C 4.320312 -1.460938 3.300781 -2.523438 2.5625 -3.953125 C 1.820312 -5.378906 1.453125 -7.15625 1.453125 -9.28125 C 1.453125 -11.40625 1.820312 -13.179688 2.5625 -14.609375 C 3.300781 -16.035156 4.320312 -17.097656 5.625 -17.796875 C 6.925781 -18.492188 8.425781 -18.84375 10.125 -18.84375 C 11.820312 -18.84375 13.316406 -18.492188 14.609375 -17.796875 C 15.910156 -17.109375 16.925781 -16.046875 17.65625 -14.609375 C 18.394531 -13.179688 18.765625 -11.40625 18.765625 -9.28125 C 18.765625 -7.15625 18.394531 -5.375 17.65625 -3.9375 C 16.925781 -2.507812 15.910156 -1.453125 14.609375 -0.765625 C 13.316406 -0.078125 11.820312 0.265625 10.125 0.265625 Z M 10.125 -2.921875 C 11.695312 -2.921875 12.898438 -3.425781 13.734375 -4.4375 C 14.566406 -5.445312 14.984375 -7.0625 14.984375 -9.28125 C 14.984375 -11.5 14.566406 -13.113281 13.734375 -14.125 C 12.898438 -15.144531 11.695312 -15.65625 10.125 -15.65625 C 8.539062 -15.65625 7.332031 -15.144531 6.5 -14.125 C 5.664062 -13.113281 5.25 -11.5 5.25 -9.28125 C 5.25 -7.0625 5.664062 -5.445312 6.5 -4.4375 C 7.332031 -3.425781 8.539062 -2.921875 10.125 -2.921875 Z M 10.125 -2.921875 "/></g></g></g><g fill="#153448" fill-opacity="1"><g transform="translate(442.149067, 247.490577)"><g><path d="M 9.59375 -18.578125 C 10.914062 -18.578125 12.050781 -18.332031 13 -17.84375 C 13.945312 -17.351562 14.660156 -16.671875 15.140625 -15.796875 C 15.617188 -14.921875 15.859375 -13.898438 15.859375 -12.734375 C 15.859375 -11.578125 15.617188 -10.5625 15.140625 -9.6875 C 14.660156 -8.820312 13.945312 -8.144531 13 -7.65625 C 12.050781 -7.164062 10.914062 -6.921875 9.59375 -6.921875 L 6.078125 -6.921875 L 6.078125 0 L 2.40625 0 L 2.40625 -18.578125 Z M 9.109375 -9.828125 C 11.148438 -9.828125 12.171875 -10.796875 12.171875 -12.734375 C 12.171875 -14.679688 11.148438 -15.65625 9.109375 -15.65625 L 6.078125 -15.65625 L 6.078125 -9.828125 Z M 9.109375 -9.828125 "/></g></g></g><g fill="#153448" fill-opacity="1"><g transform="translate(459.104136, 247.490577)"><g><path d="M 6.078125 -18.578125 L 6.078125 -3.078125 L 14.4375 -3.078125 L 14.4375 0 L 2.40625 0 L 2.40625 -18.578125 Z M 6.078125 -18.578125 "/></g></g></g><g fill="#153448" fill-opacity="1"><g transform="translate(474.130184, 247.490577)"><g><path d="M 6.078125 -8.15625 L 6.078125 -3.078125 L 14.953125 -3.078125 L 14.953125 0 L 2.40625 0 L 2.40625 -18.578125 L 14.75 -18.578125 L 14.75 -15.5 L 6.078125 -15.5 L 6.078125 -11.15625 L 13.65625 -11.15625 L 13.65625 -8.15625 Z M 6.078125 -8.15625 "/></g></g></g><g fill="#153448" fill-opacity="1"><g transform="translate(523.869527, 201.024692)"><g><path d="M 50.125 0 L 24.53125 -29.578125 L 24.53125 0 L 6.546875 0 L 6.546875 -60.921875 L 23.640625 -60.921875 L 49.234375 -30.90625 L 49.234375 -60.921875 L 67.203125 -60.921875 L 67.203125 0 Z M 50.125 0 "/></g></g></g><g fill="#153448" fill-opacity="1"><g transform="translate(597.619232, 201.024692)"><g><path d="M 6.546875 -60.921875 L 59.234375 -60.921875 L 59.234375 -46.3125 L 26.125 -46.3125 L 26.125 -37.890625 L 54.453125 -37.890625 L 54.453125 -23.90625 L 26.125 -23.90625 L 26.125 -14.609375 L 59.859375 -14.609375 L 59.859375 0 L 6.546875 0 Z M 6.546875 -60.921875 "/></g></g></g><g fill="#153448" fill-opacity="1"><g transform="translate(661.541553, 201.024692)"><g><path d="M 41.609375 -45.34375 L 41.609375 0 L 22.046875 0 L 22.046875 -45.34375 L 2.03125 -45.34375 L 2.03125 -60.921875 L 61.546875 -60.921875 L 61.546875 -45.34375 Z M 41.609375 -45.34375 "/></g></g></g><g fill="#153448" fill-opacity="1"><g transform="translate(188.51607, 202.710296)"><g><path d="M 32.140625 -61.984375 C 39.929688 -61.984375 46.335938 -60.40625 51.359375 -57.25 C 56.378906 -54.09375 58.945312 -49.410156 59.0625 -43.203125 L 59.0625 -42.140625 L 40.734375 -42.140625 L 40.734375 -42.5 C 40.734375 -44.269531 40.082031 -45.742188 38.78125 -46.921875 C 37.476562 -48.109375 35.5 -48.703125 32.84375 -48.703125 C 30.25 -48.703125 28.257812 -48.316406 26.875 -47.546875 C 25.488281 -46.785156 24.796875 -45.84375 24.796875 -44.71875 C 24.796875 -43.125 25.738281 -41.941406 27.625 -41.171875 C 29.507812 -40.398438 32.550781 -39.601562 36.75 -38.78125 C 41.644531 -37.78125 45.671875 -36.734375 48.828125 -35.640625 C 51.992188 -34.546875 54.753906 -32.757812 57.109375 -30.28125 C 59.472656 -27.800781 60.6875 -24.4375 60.75 -20.1875 C 60.75 -12.988281 58.3125 -7.644531 53.4375 -4.15625 C 48.570312 -0.675781 42.0625 1.0625 33.90625 1.0625 C 24.40625 1.0625 17.015625 -0.53125 11.734375 -3.71875 C 6.453125 -6.90625 3.8125 -12.539062 3.8125 -20.625 L 22.3125 -20.625 C 22.3125 -17.5625 23.109375 -15.507812 24.703125 -14.46875 C 26.296875 -13.4375 28.773438 -12.921875 32.140625 -12.921875 C 34.617188 -12.921875 36.671875 -13.1875 38.296875 -13.71875 C 39.921875 -14.25 40.734375 -15.34375 40.734375 -17 C 40.734375 -18.476562 39.832031 -19.582031 38.03125 -20.3125 C 36.226562 -21.050781 33.289062 -21.835938 29.21875 -22.671875 C 24.257812 -23.734375 20.15625 -24.835938 16.90625 -25.984375 C 13.664062 -27.140625 10.832031 -29.046875 8.40625 -31.703125 C 5.988281 -34.359375 4.78125 -37.957031 4.78125 -42.5 C 4.78125 -49.175781 7.363281 -54.09375 12.53125 -57.25 C 17.695312 -60.40625 24.234375 -61.984375 32.140625 -61.984375 Z M 32.140625 -61.984375 "/></g></g></g><g fill="#153448" fill-opacity="1"><g transform="translate(252.439117, 202.710296)"><g><path d="M 47.640625 0 L 47.640625 -23.109375 L 26.125 -23.109375 L 26.125 0 L 6.546875 0 L 6.546875 -60.921875 L 26.125 -60.921875 L 26.125 -38.6875 L 47.640625 -38.6875 L 47.640625 -60.921875 L 67.203125 -60.921875 L 67.203125 0 Z M 47.640625 0 "/></g></g></g><g fill="#153448" fill-opacity="1"><g transform="translate(326.18968, 202.710296)"><g><path d="M 47.375 0 L 44.8125 -8.59375 L 23.46875 -8.59375 L 20.890625 0 L 0.890625 0 L 23.109375 -60.921875 L 45.875 -60.921875 L 68.09375 0 Z M 27.53125 -22.21875 L 40.734375 -22.21875 L 34.359375 -43.921875 L 34 -43.921875 Z M 27.53125 -22.21875 "/></g></g></g><g fill="#153448" fill-opacity="1"><g transform="translate(395.070754, 202.710296)"><g><path d="M 64.375 -42.234375 C 64.375 -38.515625 63.367188 -35.148438 61.359375 -32.140625 C 59.359375 -29.128906 56.4375 -26.914062 52.59375 -25.5 L 66.140625 0 L 44.1875 0 L 33.375 -22.21875 L 26.125 -22.21875 L 26.125 0 L 6.546875 0 L 6.546875 -60.921875 L 43.828125 -60.921875 C 48.203125 -60.921875 51.9375 -60.078125 55.03125 -58.390625 C 58.132812 -56.710938 60.46875 -54.441406 62.03125 -51.578125 C 63.59375 -48.710938 64.375 -45.597656 64.375 -42.234375 Z M 44.453125 -41.4375 C 44.453125 -43.03125 43.921875 -44.359375 42.859375 -45.421875 C 41.796875 -46.484375 40.492188 -47.015625 38.953125 -47.015625 L 26.125 -47.015625 L 26.125 -35.765625 L 38.953125 -35.765625 C 40.492188 -35.765625 41.796875 -36.3125 42.859375 -37.40625 C 43.921875 -38.5 44.453125 -39.84375 44.453125 -41.4375 Z M 44.453125 -41.4375 "/></g></g></g><g fill="#153448" fill-opacity="1"><g transform="translate(463.951828, 202.710296)"><g><path d="M 6.546875 -60.921875 L 59.234375 -60.921875 L 59.234375 -46.3125 L 26.125 -46.3125 L 26.125 -37.890625 L 54.453125 -37.890625 L 54.453125 -23.90625 L 26.125 -23.90625 L 26.125 -14.609375 L 59.859375 -14.609375 L 59.859375 0 L 6.546875 0 Z M 6.546875 -60.921875 "/></g></g></g></svg>